<svg height="512pt" viewBox="-21 0 512 512" width="512pt" xmlns="http://www.w3.org/2000/svg"><path d="m466.589844 3.5c-2.027344-2.21875-4.90625-3.5-7.914063-3.5h-448c-3.007812 0-5.886719 1.28125-7.914062 3.5-2.003907 2.261719-3.007813 5.226562-2.7109378 8.234375l42.6679688 426.664063c.425781 4.183593 3.242188 7.722656 7.230469 9.066406l192 64c1.109375.34375 2.261719.535156 3.394531.535156 1.277344 0 2.539062-.234375 3.753906-.683594l170.667969-64c3.796875-1.40625 6.460937-4.882812 6.867187-8.917968l42.667969-426.664063c.296875-3.007813-.703125-5.972656-2.710937-8.234375zm0 0" fill="#ff9800"/><path d="m245.34375 512c-1.132812 0-2.285156-.191406-3.371094-.535156l-192-64c-3.988281-1.320313-6.828125-4.882813-7.234375-9.066406l-42.6640622-426.664063c-.3203128-3.007813.6835932-5.972656 2.6875002-8.234375 2.027343-2.21875 4.90625-3.5 7.914062-3.5h448c3.007813 0 5.886719 1.28125 7.914063 3.5 2.027344 2.238281 3.007812 5.226562 2.710937 8.234375l-42.667969 426.664063c-.40625 4.035156-3.070312 7.511718-6.867187 8.917968l-170.667969 64c-1.214844.449219-2.476562.683594-3.753906.683594zm-182.082031-82.601562 181.867187 60.628906 160.917969-60.351563 40.832031-408.34375h-424.40625zm0 0"/><path d="m245.34375 405.332031c-1.132812 0-2.285156-.191406-3.371094-.53125l-96-32c-3.628906-1.214843-6.335937-4.265625-7.082031-8.042969l-10.667969-53.332031c-1.152344-5.78125 2.601563-11.394531 8.363282-12.546875 5.867187-1.257812 11.414062 2.582032 12.542968 8.386719l9.449219 47.25 86.550781 28.867187 75.945313-28.480468 18.496093-120.234375h-211.5625c-5.480468 0-10.066406-4.140625-10.621093-9.601563l-10.667969-106.667968c-.300781-3.007813.703125-5.972657 2.710938-8.234376 2.023437-2.21875 4.90625-3.496093 7.914062-3.496093h256c5.886719 0 10.664062 4.777343 10.664062 10.664062 0 5.890625-4.777343 10.667969-10.664062 10.667969h-244.203125l8.53125 85.332031h214.335937c3.117188 0 6.082032 1.34375 8.085938 3.734375 2.027344 2.347656 2.921875 5.484375 2.453125 8.554688l-21.332031 138.667968c-.578125 3.816407-3.179688 6.996094-6.785156 8.363282l-85.332032 32c-1.214844.445312-2.476562.679687-3.753906.679687zm0 0"/></svg>