<?xml version="1.0" encoding="UTF-8" standalone="no"?><!DOCTYPE svg PUBLIC "-//W3C//DTD SVG 1.1//EN" "http://www.w3.org/Graphics/SVG/1.1/DTD/svg11.dtd"><svg width="100%" height="100%" viewBox="0 0 165 24" version="1.1" xmlns="http://www.w3.org/2000/svg" xmlns:xlink="http://www.w3.org/1999/xlink" xml:space="preserve" xmlns:serif="http://www.serif.com/" style="fill-rule:evenodd;clip-rule:evenodd;stroke-linejoin:round;stroke-miterlimit:2;"><rect id="Artboard1" x="0" y="0" width="164.4" height="23.52" style="fill:none;"/><g><path d="M21.222,0.96l-20.068,0c-0.505,0 -0.914,0.416 -0.914,0.924l0,6.038l21.896,0l0,-6.038c0,-0.508 -0.41,-0.924 -0.914,-0.924Z" style="fill:#05386b;fill-rule:nonzero;"/><path d="M0.24,7.924l0,14.088c0,0.507 0.409,0.919 0.914,0.919l20.064,0c0.504,0 0.914,-0.412 0.914,-0.919l0,-14.088l-21.892,0Z" style="fill:#edf5e1;fill-rule:nonzero;"/><ellipse cx="2.917" cy="4.443" rx="1.293" ry="1.301" style="fill:#f2705b;"/><ellipse cx="6.951" cy="4.443" rx="1.293" ry="1.301" style="fill:#ffd05c;"/><ellipse cx="10.981" cy="4.443" rx="1.293" ry="1.301" style="fill:#89d6f7;"/><g><path d="M6.399,19.602l-4.15,-4.177l4.15,-4.172l1.375,1.383l-2.771,2.789l2.771,2.793l-1.375,1.384Z" style="fill:#65c5b8;fill-rule:nonzero;"/><path d="M15.977,19.602l-1.375,-1.384l2.771,-2.793l-2.771,-2.789l1.375,-1.383l4.15,4.172l-4.15,4.177Z" style="fill:#65c5b8;fill-rule:nonzero;"/></g><path d="M10.455,20.318l-1.948,0l3.414,-9.781l1.948,0l-3.414,9.781Z" style="fill:#4fbfa8;fill-rule:nonzero;"/><rect x="0.24" y="7.922" width="21.896" height="0.499" style="fill:#379683;"/></g><text x="29.16px" y="22.68px" style="font-family:'Athelas-Bold', 'Athelas';font-weight:700;font-size:30px;fill:#05386b;stroke:#043668;stroke-width:0.24px;">A<tspan x="48.78px 65.79px " y="22.68px 22.68px ">da</tspan>m Sisa</text></svg>